inDegrees=yes
name=ik_S42_A01_T01
DataType=double
version=3
OpenSimVersion=4.3-2021-08-27-4bc7ad9
endheader
time	pelvis_tilt	pelvis_list	pelvis_rotation	pelvis_tx	pelvis_ty	pelvis_tz	hip_flexion_r	hip_adduction_r	hip_rotation_r	knee_angle_r	knee_angle_r_beta	ankle_angle_r	subtalar_angle_r	mtp_angle_r	hip_flexion_l	hip_adduction_l	hip_rotation_l	knee_angle_l	knee_angle_l_beta	ankle_angle_l	subtalar_angle_l	mtp_angle_l	lumbar_extension	lumbar_bending	lumbar_rotation	arm_flex_r	arm_add_r	arm_rot_r	elbow_flex_r	pro_sup_r	wrist_flex_r	wrist_dev_r	arm_flex_l	arm_add_l	arm_rot_l	elbow_flex_l	pro_sup_l	wrist_flex_l	wrist_dev_l
0	0	0	0	0	0.9399999999999999	0	0	0	0	0	0	0	0	0	0	0	0	0	0	0	0	0	0	0	0	0	0	0	0	89.99999999963507	0	0	0	0	0	0	89.99999999869995	0	0
0.02	0.3471098758775306	-0.06056406429544626	-90.00650048122574	0	0.9399999999999999	0	-1.44118005882837	-1.73571846100312	-2.167365073803146	-2.123906221008381	-0.03706915656018661	0	0	0	-2.421308401271521	-1.778880060390462	-6.766399820545209	-1.795398296112596	-0.03133561165186091	0	0	0	0	0	0	1.878471391622969	-1.878471391622969	0.3344693052609214	9.29478962256886	89.66553071402595	0	0	1.878471391622969	-1.878471391622969	0.3344693052609214	9.29478962256886	89.66553071315349	0	0
0.04	0.3154390628030774	-0.0922212395839903	-90.00203909205452	0	0.9399999999999999	0	-1.455204017923327	-1.710663501833368	-2.106238050705991	-2.079708815917068	-0.03629776632050549	0	0	0	-2.422399141676054	-1.811530451662908	-6.755237108633112	-1.722922094724985	-0.03007066330830862	0	0	0	0	0	0	2.025774018708531	-2.025774018708531	0.3616769132113412	9.71356154818435	89.63832310767604	0	0	2.025774018708531	-2.025774018708531	0.3616769132113412	9.71356154818435	89.63832310680864	0	0
0.06	0.3223238490457355	-0.1051655104756636	-90.00148378651717	0	0.9399999999999999	0	-1.468932950426355	-1.735289412647023	-2.064437933350512	-2.076963563564981	-0.03624985262816346	0	0	0	-2.379212001071215	-1.789317805918399	-6.749376240963275	-1.663970600939225	-0.02904176564277812	0	0	0	0	0	0	2.150777416978913	-2.150777416978913	0.3847850595373739	10.08707338484976	89.61521496270979	0	0	2.150777416978913	-2.150777416978913	0.3847850595373739	10.08707338484976	89.61521496184676	0	0
0.08	0.3246771423879324	-0.111684379759442	-89.9902329108946	0	0.9399999999999999	0	-1.471392865231082	-1.746615255018954	-2.073308191020125	-2.051241305751606	-0.03580091453827322	0	0	0	-2.324810809732153	-1.779689950475729	-6.699405186865007	-1.577011483371659	-0.02752404272659526	0	0	0	0	0	0	2.25098776203123	-2.25098776203123	0.4034729673168864	10.46983810987162	89.59652705603291	0	0	2.25098776203123	-2.25098776203123	0.4034729673168864	10.46983810987162	89.59652705517341	0	0
0.1	0.3269669225957605	-0.08717575319415068	-89.97986443076006	0	0.9399999999999999	0	-1.466925435041432	-1.774845622160535	-2.028096875986862	-2.065696809167086	-0.03605321066790663	0	0	0	-2.232741543622574	-1.760037418187026	-6.626828447931029	-1.456543046048948	-0.02542147185058153	0	0	0	0	0	0	3.00036060328119	-3.00036060328119	0.5403134662280044	12.75889600997008	89.4596865651488	0	0	3.00036060328119	-3.00036060328119	0.5403134662280044	12.75889600997008	89.45968656431492	0	0
0.12	0.3218387346731299	-0.05943646667436521	-89.95791303049197	0	0.9399999999999999	0	-1.379174188095023	-1.775020819146001	-2.054949501566118	-1.773293212182685	-0.03094980515585427	0	0	0	-2.104412952692311	-1.761805674611433	-6.550278916823773	-1.125391419171638	-0.01964178563823672	0	0	0	0	0	0	3.148316579508415	-3.148316579508415	0.5676410225123604	13.32743848434333	89.43235901047341	0	0	3.148316579508415	-3.148316579508415	0.5676410225123604	13.32743848434333	89.43235900964466	0	0
0.14	0.3045855498570654	-0.05787393657331463	-89.94871539307762	0	0.9399999999999999	0	-1.466449992731548	-1.78708980413686	-1.925049748523389	-2.089361110363502	-0.03646623063896772	0	0	0	-2.108781764255914	-1.768218834674942	-6.438527438353269	-1.300326614338606	-0.02269498077151918	0	0	0	0	0	0	3.546120389251061	-3.546120389251062	0.6399922635328752	14.5080221203681	89.36000777369429	0	0	3.546120389251061	-3.546120389251062	0.6399922635328752	14.5080221203681	89.36000777287919	0	0
0.16	0.2885274869982991	-0.08418932155079753	-89.96691539233629	0	0.9399999999999999	0	-1.517589394742913	-1.794375314419784	-1.851556371915134	-2.154491539403217	-0.03760297106894728	0	0	0	-2.125562116898751	-1.777152164127705	-6.433143425829974	-1.202789785654792	-0.02099264196903299	0	0	0	0	0	0	4.120659209398035	-4.120659209398034	0.743220711728673	16.35709685931748	89.2567793315331	0	0	4.120659209398035	-4.120659209398034	0.743220711728673	16.35709685931748	89.2567793307373	0	0
0.18	0.2675934396641608	-0.07778760018790394	-89.97677053124934	0	0.9399999999999999	0	-1.533955510254656	-1.780555659911845	-1.803001685138885	-2.163604013437631	-0.0377620137438503	0	0	0	-2.085253327947635	-1.762763166323359	-6.318344762286431	-1.149205317029999	-0.02005741656359874	0	0	0	0	0	0	4.290449029246772	-4.290449029246772	0.7737650021473839	16.89918961624036	89.226235042901	0	0	4.290449029246772	-4.290449029246772	0.7737650021473839	16.89918961624036	89.22623504211091	0	0
0.2	0.2388323522764089	-0.06795478212639687	-90.03101986468528	0	0.9399999999999999	0	-1.531169501260224	-1.786952154057886	-1.767718943437962	-2.168197991290055	-0.03784219378313879	0	0	0	-2.058615750342062	-1.773281674909982	-6.224707860939245	-1.147234408569108	-0.02002301772170078	0	0	0	0	0	0	4.291621534239756	-4.291621534239756	0.7739869582159969	16.90635320227726	89.22601308684557	0	0	4.291621534239756	-4.291621534239756	0.7739869582159969	16.90635320227726	89.22601308605552	0	0
0.22	0.225100224407703	-0.03876790472727189	-90.03297926381461	0	0.9399999999999999	0	-1.513037115141265	-1.797098105027552	-1.806908246980096	-2.209785172490601	-0.0385680270217118	0	0	0	-2.00228427789213	-1.796632808782226	-6.16795116974085	-1.130813369587648	-0.01973641652487597	0	0	0	0	0	0	4.41059177717535	-4.41059177717535	0.7952137241407979	17.24530676894798	89.20478632215968	0	0	4.41059177717535	-4.41059177717535	0.7952137241407979	17.24530676894798	89.2047863213736	0	0
0.24	0.2028180812058253	-0.0293218352123357	-90.08794250822	0	0.9399999999999999	0	-1.537618611658631	-1.802912202769967	-1.778668011108266	-2.20842531133059	-0.03854429296709963	0	0	0	-1.971063918774876	-1.762106735027299	-6.098270631969074	-1.120394932613685	-0.01955458049676881	0	0	0	0	0	0	4.411196561851157	-4.411196561851157	0.7953269808168482	17.24883439508726	89.20467306549034	0	0	4.411196561851157	-4.411196561851157	0.7953269808168482	17.24883439508726	89.20467306470428	0	0
0.26	0.2675929275884656	0.1307259787855098	-90.12500272059376	0	0.9399999999999999	0	-1.372629405676404	-1.866808782035682	-1.743434276649652	-2.243384627606344	-0.03915444814035757	0	0	0	-1.726297580351469	-1.663073709904	-6.050788504014053	-0.9398258281801587	-0.01640305509702628	0	0	0	0	0	0	4.880257922874137	-4.880257922874137	0.8792115815023011	18.89232376696387	89.12078846970573	0	0	4.880257922874137	-4.880257922874137	0.8792115815023011	18.89232376696387	89.12078846893542	0	0
0.28	0.2909226395230395	0.2326948230757119	-90.10544770575279	0	0.9399999999999999	0	-1.381871904680368	-1.992023545936532	-1.757922088059781	-2.335331348899415	-0.04075922116333524	0	0	0	-1.555897848638091	-1.58554344037359	-5.896461516894983	-0.9090776848027099	-0.0158663987562145	0	0	0	0	0	0	4.88497417761233	-4.88497417761233	0.880101181389498	18.91963612585953	89.11989886987124	0	0	4.88497417761233	-4.88497417761233	0.880101181389498	18.91963612585953	89.11989886910111	0	0
0.3	0.2952817378741179	0.2740453647077549	-90.1048729256139	0	0.9399999999999999	0	-1.512887495156452	-2.076645728185702	-1.708361675940836	-2.572815146564586	-0.04490409535273249	0	0	0	-1.413840450165936	-1.524201421571857	-5.674398535327619	-0.7772745632021506	-0.01356600031987829	0	0	0	0	0	0	4.890239999822239	-4.890239999822239	0.881095306459969	18.95019739594595	89.11890474485968	0	0	4.890239999822239	-4.890239999822239	0.881095306459969	18.95019739594595	89.11890474408975	0	0
0.32	0.2439546568584719	0.3526465169343331	-90.11837242277829	0	0.9399999999999999	0	-1.522262662318017	-2.090251671258537	-1.795494006138989	-2.634384902767587	-0.04597869031812506	0	0	0	-1.282108765737659	-1.501853515045748	-5.450480330367622	-0.6784030734467859	-0.01184036728729533	0	0	0	0	0	0	4.895721523951635	-4.895721523951635	0.8821321718944108	18.98218539794573	89.11786787948668	0	0	4.895721523951635	-4.895721523951635	0.8821321718944108	18.98218539794573	89.11786787871698	0	0
0.34	0.1721989305239085	0.4200604038676611	-90.19983176910704	0	0.9399999999999999	0	-1.477487245210519	-2.07012728641772	-1.792257844754455	-2.651289011682556	-0.04627372267580701	0	0	0	-1.308555738406407	-1.42193548290027	-5.345357467360082	-0.6758221790498546	-0.01179532218242261	0	0	0	0	0	0	4.89680860678462	-4.89680860678462	0.8823361066965665	18.98834795032571	89.11766394469659	0	0	4.89680860678462	-4.89680860678462	0.8823361066965665	18.98834795032571	89.11766394392693	0	0
0.36	0.1352340142957763	0.5310587583775701	-90.25972595605808	0	0.9399999999999999	0	-1.378289045740229	-2.070531221552325	-1.866420276197979	-2.66478071448033	-0.0465091973113287	0	0	0	-1.291106284797858	-1.391235039148526	-5.480587204925203	-0.7249497703421446	-0.01265276040404716	0	0	0	0	0	0	4.898572546039053	-4.898572546039053	0.882665616734181	18.99820181191831	89.1173344346785	0	0	4.898572546039053	-4.898572546039053	0.882665616734181	18.99820181191831	89.11733443390887	0	0
